<?xml version="1.0" standalone="no"?>
<!DOCTYPE svg PUBLIC "-//W3C//DTD SVG 20010904//EN"
 "http://www.w3.org/TR/2001/REC-SVG-20010904/DTD/svg10.dtd">
<svg version="1.0" xmlns="http://www.w3.org/2000/svg"
 width="3070.000000pt" height="616.000000pt" viewBox="0 0 3070.000000 616.000000"
 preserveAspectRatio="xMidYMid meet">

<g transform="translate(0.000000,616.000000) scale(0.100000,-0.100000)"
fill="#006a4e" stroke="none">
<path d="M1185 5579 c-55 -10 -128 -24 -163 -31 l-63 -13 -30 -85 c-49 -136
-75 -256 -44 -200 12 22 14 23 20 8 4 -9 3 -23 -1 -30 -4 -6 -9 -34 -10 -61
-1 -26 -7 -54 -12 -60 -6 -7 -12 -26 -15 -42 -3 -17 -8 -41 -12 -53 -12 -38
-23 -6 -14 41 4 23 8 51 8 62 0 17 -2 16 -11 -5 -6 -14 -12 -36 -14 -50 -1
-14 -5 -41 -8 -60 -12 -83 -36 -334 -41 -440 -9 -162 -18 -256 -24 -269 -5 -7
-5 -30 -1 -51 4 -22 4 -43 -1 -47 -13 -14 -13 -46 -1 -103 7 -32 10 -88 7
-135 -14 -198 -16 -364 -5 -435 13 -91 57 -239 76 -261 8 -8 14 -21 14 -28 0
-17 110 -131 127 -131 7 0 16 -7 19 -15 6 -14 85 -55 106 -55 15 0 70 -41 64
-47 -8 -8 13 -43 25 -43 5 0 40 -14 77 -31 60 -28 205 -78 352 -122 50 -14
152 -35 207 -42 12 -2 26 -6 31 -9 15 -9 297 -15 311 -7 7 5 -22 11 -64 14
-42 3 -82 11 -90 17 -9 8 -15 8 -20 0 -3 -6 -11 -8 -16 -4 -5 3 -7 10 -4 15 8
12 42 12 47 0 2 -5 15 -7 30 -4 39 7 27 19 -27 27 -25 4 -43 11 -40 17 4 5 1
9 -4 9 -6 0 -11 -4 -11 -9 0 -12 -48 -1 -61 15 -15 19 -33 18 -25 -1 4 -11 -2
-15 -24 -15 -33 0 -49 18 -29 31 11 7 9 9 -8 9 -12 0 -23 -5 -25 -11 -2 -7
-14 -8 -38 -1 -30 8 -32 11 -16 17 15 7 9 11 -30 21 -27 7 -60 13 -74 14 -15
0 -30 4 -35 9 -6 5 -36 16 -67 25 -31 9 -60 21 -63 26 -3 6 -17 10 -29 10 -13
0 -29 7 -36 15 -7 8 -18 15 -25 15 -7 0 -30 8 -51 17 -22 9 -45 16 -52 14 -8
-1 -19 3 -26 9 -8 5 -42 24 -77 42 -35 17 -71 36 -79 43 -8 7 -26 15 -40 18
-14 4 -53 32 -86 64 -69 65 -129 177 -138 253 -11 106 -18 146 -28 167 -9 17
-7 28 6 48 10 15 14 30 10 33 -4 4 -9 1 -11 -5 -7 -20 -23 -15 -23 6 0 10 8
25 17 32 15 12 16 12 10 -3 -3 -10 -2 -18 3 -18 6 0 10 10 11 23 0 12 1 42 2
67 2 40 0 45 -18 43 -17 -2 -21 3 -19 25 2 41 3 42 18 36 24 -9 28 15 7 42
-22 28 -28 69 -12 79 6 3 11 -11 13 -30 3 -34 4 -35 23 -21 15 11 17 17 8 26
-8 9 -8 20 3 46 10 23 11 34 3 34 -7 0 -9 9 -5 23 3 12 0 34 -7 47 -18 36 -11
130 10 151 9 9 8 16 -3 26 -11 11 -12 19 -4 28 6 7 8 24 5 37 -5 19 -2 24 16
25 12 1 25 7 29 14 20 31 32 191 30 369 0 52 20 232 29 255 5 11 17 67 29 125
11 58 26 119 33 135 7 17 17 48 23 70 9 33 16 41 46 48 19 5 51 12 70 17 19 5
64 14 100 21 65 12 65 12 138 -25 48 -24 76 -45 82 -61 18 -46 27 -157 17
-204 -10 -52 -30 -77 -105 -133 -89 -66 -124 -139 -122 -256 3 -181 1 -298 -4
-312 -4 -9 -2 -47 3 -85 6 -38 8 -72 5 -76 -2 -4 0 -10 6 -14 5 -3 10 2 10 11
0 10 3 15 6 11 3 -3 7 -41 9 -84 2 -65 12 -106 59 -243 32 -91 57 -176 57
-189 -2 -49 48 -106 130 -149 43 -22 75 -43 72 -46 -7 -7 13 -9 110 -10 63 -1
84 6 55 17 -10 4 -10 6 0 6 8 1 16 -8 19 -19 6 -22 58 -36 92 -25 15 5 21 2
21 -9 0 -18 16 -21 26 -5 3 6 17 8 30 5 13 -4 24 -2 24 3 0 5 -19 12 -42 16
-24 4 -48 12 -55 17 -7 5 -18 8 -25 6 -7 -3 -29 2 -48 10 -24 10 -65 14 -133
13 -76 -1 -98 2 -95 11 3 8 25 13 61 13 38 0 58 4 62 13 4 10 -5 12 -39 7 -45
-7 -83 6 -135 47 -29 22 -70 86 -71 109 0 22 -37 145 -60 199 -26 62 -44 119
-47 155 -8 71 -12 405 -6 405 5 0 8 60 8 133 0 131 0 132 30 174 17 23 42 47
56 52 33 11 100 82 94 99 -2 6 -1 12 4 12 15 0 43 51 48 89 12 82 6 226 -10
255 -15 28 -15 28 -20 5 -3 -16 -5 -11 -7 16 -1 22 -2 43 -1 48 2 12 -27 8
-32 -5 -2 -8 -14 3 -26 24 -20 34 -42 51 -66 53 -5 0 -16 4 -23 9 -7 4 -16 5
-20 1 -9 -9 21 -26 36 -20 8 3 12 0 10 -6 -2 -6 -7 -10 -11 -9 -35 8 -47 14
-47 21 0 5 -9 9 -20 9 -11 0 -25 9 -32 20 -15 23 -13 23 -143 -1z m-175 -73
c0 -2 -7 -6 -15 -10 -8 -3 -15 -1 -15 4 0 6 7 10 15 10 8 0 15 -2 15 -4z m180
-26 c0 -5 -9 -10 -21 -10 -11 0 -17 5 -14 10 3 6 13 10 21 10 8 0 14 -4 14
-10z m-155 -37 c-3 -10 -9 -31 -12 -48 -3 -16 -9 -34 -14 -40 -4 -5 -18 -41
-31 -79 -14 -39 -30 -72 -38 -74 -9 -3 -11 1 -5 14 4 11 8 26 9 34 3 20 14 49
32 82 8 14 14 33 14 42 0 27 28 86 41 86 7 0 8 -7 4 -17z m45 13 c0 -3 -4 -8
-10 -11 -5 -3 -10 -1 -10 4 0 6 5 11 10 11 6 0 10 -2 10 -4z m-121 -58 c-13
-44 -34 -76 -44 -66 -4 3 6 32 20 63 31 65 42 67 24 3z m-42 -115 c-3 -10 -5
-4 -5 12 0 17 2 24 5 18 2 -7 2 -21 0 -30z m613 -83 c0 -5 -2 -10 -4 -10 -3 0
-8 5 -11 10 -3 6 -1 10 4 10 6 0 11 -4 11 -10z m36 -77 c-11 -11 -17 4 -9 23
7 18 8 18 11 1 2 -10 1 -21 -2 -24z m-624 -3 c-2 -17 -9 -29 -14 -28 -5 2 -9
7 -9 11 1 4 1 16 1 27 0 11 6 20 13 20 9 0 12 -10 9 -30z m-12 -49 c0 -6 -4
-13 -10 -16 -5 -3 -10 1 -10 9 0 9 5 16 10 16 6 0 10 -4 10 -9z m-10 -56 c0
-14 -4 -25 -10 -25 -11 0 -14 33 -3 43 11 11 13 8 13 -18z m515 15 c-3 -5 -11
-10 -16 -10 -6 0 -7 5 -4 10 3 6 11 10 16 10 6 0 7 -4 4 -10z m-55 -40 c-13
-11 -26 -17 -29 -14 -7 6 28 34 42 34 6 0 0 -9 -13 -20z m-480 -95 c-17 -31
-19 -29 -13 13 4 24 9 30 16 23 7 -7 7 -18 -3 -36z m416 8 c-10 -10 -19 5 -10
18 6 11 8 11 12 0 2 -7 1 -15 -2 -18z m-9 -49 c-9 -9 -28 6 -21 18 4 6 10 6
17 -1 6 -6 8 -13 4 -17z m-7 -58 c0 -14 -4 -28 -10 -31 -6 -4 -10 7 -10 24 0
17 5 31 10 31 6 0 10 -11 10 -24z m-420 -52 c0 -8 -5 -12 -10 -9 -6 4 -8 11
-5 16 9 14 15 11 15 -7z m412 -36 c-9 -9 -12 -7 -12 12 0 19 3 21 12 12 9 -9
9 -15 0 -24z m-412 -48 c0 -16 -4 -30 -10 -30 -11 0 -14 43 -3 53 11 12 13 8
13 -23z m412 -2 c-9 -9 -12 -7 -12 12 0 19 3 21 12 12 9 -9 9 -15 0 -24z m32
-92 c-11 -33 -25 6 -17 46 l7 33 8 -30 c4 -16 5 -39 2 -49z m-4 -52 c0 -8 -5
-12 -10 -9 -6 4 -8 11 -5 16 9 14 15 11 15 -7z m-2 -156 c-2 -6 -10 -14 -16
-16 -7 -2 -10 2 -6 12 7 18 28 22 22 4z m-1 -50 c-3 -8 -6 -5 -6 6 -1 11 2 17
5 13 3 -3 4 -12 1 -19z m-540 -160 c-3 -8 -6 -5 -6 6 -1 11 2 17 5 13 3 -3 4
-12 1 -19z m653 -223 c0 -7 4 -15 9 -17 6 -1 13 -28 16 -58 l7 -55 -21 30
c-12 17 -21 39 -21 51 0 11 -4 24 -9 30 -4 5 -11 25 -14 44 l-7 35 20 -24 c11
-13 20 -29 20 -36z m55 -165 c3 -11 12 -20 20 -20 7 0 15 -9 18 -20 3 -12 14
-20 26 -20 12 0 21 -4 21 -10 0 -5 -9 -10 -21 -10 -21 0 -99 71 -99 90 0 18
28 10 35 -10z m195 -139 c0 -5 -9 -7 -20 -4 -11 3 -20 7 -20 9 0 2 9 4 20 4
11 0 20 -4 20 -9z m197 -27 c-3 -3 -12 -4 -19 -1 -8 3 -5 6 6 6 11 1 17 -2 13
-5z m-32 -814 c3 -5 -1 -10 -10 -10 -9 0 -13 5 -10 10 3 6 8 10 10 10 2 0 7
-4 10 -10z"/>
<path d="M1345 5590 c3 -5 8 -10 11 -10 2 0 4 5 4 10 0 6 -5 10 -11 10 -5 0
-7 -4 -4 -10z"/>
<path d="M6630 5589 c0 -5 5 -7 10 -4 6 3 10 8 10 11 0 2 -4 4 -10 4 -5 0 -10
-5 -10 -11z"/>
<path d="M6657 5578 c-13 -14 -27 -18 -45 -15 -15 3 -32 -1 -41 -10 -13 -14
-13 -15 9 -8 24 7 24 7 5 -8 -20 -16 -51 -5 -39 14 3 5 -6 4 -20 -3 -14 -6
-26 -18 -26 -26 0 -9 -7 -13 -20 -9 -11 3 -20 1 -20 -4 0 -5 7 -9 16 -9 14 0
14 -2 3 -16 -8 -10 -15 -12 -17 -5 -2 6 -10 11 -18 11 -10 0 -14 -13 -15 -42
-1 -24 -3 -35 -6 -25 -6 24 -19 21 -27 -5 -14 -48 -19 -217 -7 -232 7 -8 9
-25 6 -38 -5 -19 1 -33 25 -58 20 -22 28 -36 20 -38 -15 -5 72 -88 102 -98 60
-19 88 -101 83 -246 -1 -60 1 -108 5 -108 9 0 5 -285 -5 -385 -4 -33 -12 -73
-20 -90 -14 -32 -75 -223 -94 -293 -25 -92 -134 -167 -209 -144 -40 13 -50 9
-34 -11 8 -9 31 -13 67 -12 41 2 55 -1 55 -12 0 -11 -18 -13 -87 -12 -56 1
-112 -5 -153 -16 -36 -9 -84 -22 -107 -28 -24 -5 -43 -14 -43 -19 0 -5 9 -7
19 -3 11 3 22 1 26 -5 10 -16 35 -12 28 6 -4 12 0 14 21 8 29 -7 96 3 95 14
-3 21 3 32 19 31 10 0 12 -3 5 -6 -31 -12 -7 -18 67 -18 46 0 84 5 88 11 4 5
36 25 72 43 36 19 71 38 78 44 20 16 52 83 52 110 0 12 4 27 8 33 5 5 19 43
32 84 13 41 27 80 31 85 3 6 10 28 14 50 4 22 12 46 18 54 6 7 13 58 15 112 3
55 8 99 13 99 5 0 9 -8 10 -17 1 -10 5 0 9 22 4 22 7 157 6 300 l-2 260 -29
52 c-20 35 -55 71 -105 111 -70 55 -77 63 -88 111 -9 39 -9 71 -2 124 17 118
13 111 97 151 77 37 78 37 143 26 63 -11 121 -24 168 -38 13 -4 29 -18 37 -32
17 -33 55 -153 55 -175 0 -18 28 -149 38 -175 3 -8 4 -23 3 -32 -1 -9 3 -35 9
-58 12 -45 21 -173 21 -290 -1 -119 9 -209 22 -206 7 2 9 1 5 -1 -25 -14 11
-56 40 -46 15 6 16 -9 1 -24 -8 -8 -7 -16 2 -31 10 -16 10 -24 1 -34 -9 -11
-9 -17 0 -26 16 -16 12 -210 -5 -223 -4 -3 -3 -18 3 -34 6 -16 8 -35 5 -43 -6
-15 11 -42 26 -42 5 0 6 13 3 29 -4 16 -1 32 5 35 17 11 14 -57 -4 -80 -21
-28 -19 -47 5 -41 17 4 20 0 20 -31 0 -21 -4 -32 -8 -25 -4 7 -13 8 -20 4 -11
-7 -12 -23 -3 -128 1 -7 5 -13 10 -13 5 0 7 10 4 23 l-5 22 17 -23 c21 -28 13
-61 -10 -42 -12 10 -15 10 -15 -3 0 -8 5 -17 10 -19 14 -4 14 -30 0 -93 -6
-27 -15 -78 -20 -113 -9 -61 -53 -169 -92 -225 -20 -28 -120 -107 -136 -107
-5 0 -31 -12 -58 -26 -27 -15 -60 -33 -74 -40 -14 -8 -30 -14 -36 -14 -7 0
-15 -7 -18 -16 -3 -8 -14 -14 -23 -13 -10 1 -35 -5 -57 -14 -21 -9 -43 -17
-48 -17 -6 0 -22 -6 -36 -14 -58 -29 -118 -54 -149 -61 -18 -4 -35 -11 -38
-16 -4 -5 -18 -9 -33 -9 -15 -1 -49 -7 -76 -14 -42 -11 -47 -15 -32 -23 16 -9
14 -11 -15 -17 -18 -3 -37 -2 -43 4 -5 5 -17 10 -26 9 -10 0 -11 -2 -2 -6 22
-9 -7 -33 -40 -33 -26 0 -29 2 -18 15 17 20 7 19 -38 -5 -21 -12 -38 -16 -40
-10 -2 5 -8 10 -13 10 -6 0 -8 -4 -5 -9 3 -5 -8 -11 -25 -15 -37 -7 -62 4 -33
15 13 5 14 8 4 8 -8 0 -22 -4 -30 -9 -13 -9 -13 -10 0 -10 12 -1 12 -3 -3 -14
-16 -13 -15 -14 10 -19 14 -3 34 0 43 6 10 6 25 7 36 2 17 -8 16 -9 -6 -12
-14 -2 -32 -7 -40 -10 -19 -8 -33 -9 -100 -11 -37 -2 -50 -5 -41 -11 8 -5 69
-8 135 -5 108 3 139 6 196 18 8 2 38 6 65 10 185 27 600 177 600 216 0 8 11
23 25 33 31 22 112 59 117 53 4 -4 12 3 112 99 54 51 121 168 121 211 0 13 5
26 10 29 6 4 8 10 5 15 -3 5 -1 11 4 14 20 12 31 531 11 531 -6 0 -5 107 1
111 4 2 5 13 2 24 -3 12 0 20 7 20 9 0 11 11 5 43 -4 23 -9 78 -11 122 -4 74
-10 149 -19 235 -5 45 -13 150 -20 275 -3 55 -13 137 -21 182 -8 45 -14 88
-13 95 2 13 -17 68 -24 68 -3 0 0 -23 5 -51 5 -28 8 -63 6 -77 -3 -22 -7 -15
-22 33 -9 33 -21 69 -26 80 -9 22 -22 155 -15 155 2 0 11 -12 19 -27 8 -16 15
-22 16 -14 0 22 -34 151 -50 186 -5 11 -18 42 -27 70 l-18 50 -85 17 c-88 18
-258 49 -263 47 -1 0 -10 -10 -20 -21z m173 -99 c0 -10 -12 -11 -34 -3 -25 10
-19 22 9 16 14 -2 25 -8 25 -13z m100 -29 c0 -5 -4 -10 -10 -10 -5 0 -10 5
-10 10 0 6 5 10 10 10 6 0 10 -4 10 -10z m48 -17 c6 -15 12 -36 12 -46 0 -10
8 -31 19 -45 15 -22 41 -110 41 -139 0 -18 -30 24 -35 50 -4 18 -13 46 -21 62
-18 42 -44 117 -44 133 0 21 14 13 28 -15z m63 -14 c4 -8 13 -27 20 -44 7 -16
15 -33 17 -37 2 -5 -3 -8 -12 -8 -9 0 -16 2 -16 5 0 2 -9 27 -20 56 -13 32
-16 49 -8 47 6 -2 15 -11 19 -19z m39 -121 c0 -18 -2 -20 -9 -8 -6 8 -7 18 -5
22 9 14 14 9 14 -14z m-660 -12 c0 -3 -4 -8 -10 -11 -5 -3 -10 -1 -10 4 0 6 5
11 10 11 6 0 10 -2 10 -4z m10 -153 c0 -19 -3 -24 -10 -17 -6 6 -8 18 -4 27 9
24 14 21 14 -10z m635 -11 c0 -31 -19 -28 -23 4 -3 18 0 25 10 22 7 -3 13 -14
13 -26z m15 -58 c0 -17 -22 -14 -28 4 -2 7 3 12 12 12 9 0 16 -7 16 -16z
m-510 -34 c0 -5 -7 -7 -15 -4 -8 4 -15 8 -15 10 0 2 7 4 15 4 8 0 15 -4 15
-10z m515 -38 c-11 -11 -27 17 -20 35 6 16 8 16 16 -6 5 -13 7 -26 4 -29z
m-451 -8 c3 -8 2 -14 -2 -14 -9 1 -52 37 -52 44 0 11 49 -17 54 -30z m46 -69
c0 -8 -4 -15 -10 -15 -5 0 -10 7 -10 15 0 8 5 15 10 15 6 0 10 -7 10 -15z
m423 -10 c3 -16 0 -24 -7 -22 -14 4 -21 47 -8 47 5 0 12 -11 15 -25z m-403
-46 c0 -5 -4 -9 -10 -9 -5 0 -10 7 -10 16 0 8 5 12 10 9 6 -3 10 -10 10 -16z
m410 -19 c0 -5 -4 -10 -10 -10 -5 0 -10 5 -10 10 0 6 5 10 10 10 6 0 10 -4 10
-10z m-400 -56 c0 -13 -4 -24 -10 -24 -5 0 -10 14 -10 31 0 17 4 28 10 24 6
-3 10 -17 10 -31z m407 -46 c-3 -8 -6 -5 -6 6 -1 11 2 17 5 13 3 -3 4 -12 1
-19z m-407 -12 c0 -8 -4 -18 -10 -21 -5 -3 -10 3 -10 14 0 12 5 21 10 21 6 0
10 -6 10 -14z m407 -83 c-3 -10 -5 -2 -5 17 0 19 2 27 5 18 2 -10 2 -26 0 -35z
m-407 28 c0 -6 -4 -13 -10 -16 -5 -3 -10 1 -10 9 0 9 5 16 10 16 6 0 10 -4 10
-9z m-30 -76 c0 -25 -4 -45 -10 -45 -5 0 -10 20 -10 45 0 25 5 45 10 45 6 0
10 -20 10 -45z m-3 -87 c-3 -8 -6 -5 -6 6 -1 11 2 17 5 13 3 -3 4 -12 1 -19z
m13 -159 c0 -6 -4 -7 -10 -4 -5 3 -10 11 -10 16 0 6 5 7 10 4 6 -3 10 -11 10
-16z m-13 -41 c-3 -8 -6 -5 -6 6 -1 11 2 17 5 13 3 -3 4 -12 1 -19z m-85 -361
c-3 -12 -12 -32 -20 -44 -7 -12 -11 -27 -8 -32 4 -5 -3 -25 -15 -43 l-21 -33
7 55 c3 30 16 71 27 92 23 40 40 43 30 5z m-52 -173 c0 -12 -38 -53 -43 -47
-4 3 -12 -6 -18 -21 -8 -17 -20 -26 -36 -26 -31 0 -29 16 3 24 17 5 24 12 20
21 -3 9 1 15 9 15 8 0 19 9 25 20 10 18 40 29 40 14z m-197 -151 c-7 -2 -21
-2 -30 0 -10 3 -4 5 12 5 17 0 24 -2 18 -5z m-173 -849 c0 -2 -9 -4 -21 -4
-11 0 -18 4 -14 10 5 8 35 3 35 -6z"/>
<path d="M1510 5509 c0 -5 5 -7 10 -4 6 3 10 8 10 11 0 2 -4 4 -10 4 -5 0 -10
-5 -10 -11z"/>
<path d="M7122 5185 c0 -16 2 -22 5 -12 2 9 2 23 0 30 -3 6 -5 -1 -5 -18z"/>
<path d="M852 5175 c0 -16 2 -22 5 -12 2 9 2 23 0 30 -3 6 -5 -1 -5 -18z"/>
<path d="M12384 4521 c-2 -2 -4 -919 -4 -2038 l0 -2033 290 0 290 0 0 2035 0
2034 -286 3 c-157 2 -288 1 -290 -1z"/>
<path d="M16008 4522 l-278 -2 0 -2035 0 -2035 290 0 290 0 0 568 c0 520 2
574 19 657 59 277 211 475 426 557 82 31 233 32 319 3 81 -27 155 -96 198
-183 l33 -67 3 -767 3 -768 289 0 290 0 0 858 c0 835 -1 860 -21 938 -37 145
-112 256 -232 348 -124 93 -216 130 -374 147 -114 13 -282 1 -381 -26 -216
-60 -397 -181 -519 -345 l-58 -80 -3 1112 c-1 612 -5 1115 -10 1118 -4 3 -132
4 -284 2z"/>
<path d="M26148 4509 c-242 -20 -436 -118 -575 -289 -84 -105 -135 -216 -175
-385 -21 -85 -22 -119 -26 -632 l-3 -543 -190 0 -189 0 0 -255 0 -255 190 0
190 0 0 -850 0 -850 290 0 290 0 0 850 0 850 300 0 300 0 0 255 0 255 -300 0
-300 0 0 483 c0 283 4 509 11 547 21 132 79 241 157 293 118 77 325 75 427 -5
14 -11 27 -19 29 -17 7 9 76 120 76 122 0 2 36 66 80 142 43 76 76 143 73 148
-11 19 -151 76 -246 102 -80 21 -264 48 -302 43 -5 0 -54 -4 -107 -9z"/>
<path d="M2440 3966 l0 -284 -22 -6 c-13 -3 -33 -6 -45 -6 -12 0 -25 -5 -29
-11 -5 -9 1 -10 20 -5 14 3 37 9 51 12 19 5 25 2 25 -9 0 -11 -14 -18 -47 -23
-27 -3 -52 -10 -58 -14 -5 -4 -25 -11 -44 -15 -41 -9 -94 -39 -84 -48 3 -4 1
-7 -5 -7 -17 0 -23 17 -9 28 6 5 40 24 75 42 34 17 62 33 62 35 0 6 -84 -23
-139 -47 l-54 -25 -81 24 c-45 13 -103 28 -131 34 -27 7 -53 17 -57 23 -6 8
-8 8 -8 -1 0 -12 16 -25 35 -30 37 -8 196 -54 218 -62 15 -6 27 -16 27 -22 0
-7 -7 -8 -17 -4 -35 14 -86 23 -100 18 -23 -9 34 -41 85 -49 35 -5 56 -1 101
19 93 42 154 64 194 70 l37 6 0 -1580 0 -1579 305 0 305 0 0 810 0 810 940 0
940 0 0 -810 0 -810 303 0 302 0 -2 1567 c-2 863 1 1574 6 1581 7 12 19 11 72
-2 35 -9 68 -21 73 -26 6 -6 17 -10 26 -10 9 0 40 -11 68 -25 29 -14 64 -25
79 -25 36 1 116 37 109 49 -7 11 -75 3 -94 -12 -9 -7 -16 -7 -23 0 -13 13 23
28 156 63 58 15 111 33 118 40 10 10 8 12 -8 6 -11 -4 -42 -12 -70 -18 -27 -6
-56 -15 -62 -20 -7 -6 -13 -8 -13 -5 0 3 -26 -3 -58 -12 -59 -18 -60 -18 -137
15 -38 17 -116 44 -124 44 -3 -1 26 -17 64 -36 89 -46 100 -54 83 -65 -18 -12
-28 -11 -25 3 1 6 -20 20 -48 31 -27 11 -57 23 -65 27 -9 4 -39 11 -68 15 -37
5 -52 11 -52 22 0 16 15 15 78 -3 12 -3 22 -2 22 3 0 5 -24 14 -52 19 l-53 9
-3 283 -2 282 -300 0 -300 0 -2 -802 -3 -803 -937 -3 -938 -2 0 805 0 805
-305 0 -305 0 0 -284z"/>
<path d="M27163 3750 c-50 -11 -73 -22 -136 -67 -63 -47 -103 -106 -118 -180
-11 -54 -10 -69 6 -129 16 -58 27 -77 69 -119 65 -64 124 -95 200 -104 117
-13 202 14 288 91 74 67 103 173 79 284 -10 44 -24 66 -68 114 -32 35 -76 70
-106 84 -59 28 -150 39 -214 26z"/>
<path d="M1760 3671 c0 -6 8 -11 18 -11 9 0 28 -3 42 -6 18 -5 22 -4 15 4 -15
17 -75 27 -75 13z"/>
<path d="M6168 3673 c-10 -2 -18 -9 -18 -15 0 -5 7 -7 16 -4 9 3 27 6 40 6 13
0 24 5 24 10 0 10 -30 12 -62 3z"/>
<path d="M13990 3145 l0 -485 -187 -2 -188 -3 -3 -227 -2 -228 190 0 190 0 0
-875 0 -875 290 0 290 0 0 875 0 875 285 0 285 0 -2 228 -3 227 -282 3 -283 2
-2 483 -3 482 -287 3 -288 2 0 -485z"/>
<path d="M28540 3145 l0 -485 -192 -2 -193 -3 0 -225 0 -225 193 -3 192 -2 0
-875 0 -875 290 0 290 0 0 875 0 875 285 0 285 0 -2 228 -3 227 -282 3 -283 2
-2 483 -3 482 -287 3 -288 2 0 -485z"/>
<path d="M1963 3553 c9 -2 23 -2 30 0 6 3 -1 5 -18 5 -16 0 -22 -2 -12 -5z"/>
<path d="M6003 3553 c9 -2 23 -2 30 0 6 3 -1 5 -18 5 -16 0 -22 -2 -12 -5z"/>
<path d="M2011 2816 c2 -2 18 -6 34 -10 22 -5 26 -4 15 4 -14 9 -59 15 -49 6z"/>
<path d="M7335 2740 c-138 -19 -313 -81 -453 -161 -208 -121 -359 -276 -466
-480 -94 -177 -128 -321 -129 -534 0 -558 288 -956 812 -1119 81 -26 304 -56
410 -56 226 0 544 93 748 220 l33 20 -54 87 c-30 49 -74 120 -97 158 -60 100
-109 175 -115 175 -3 0 -36 -17 -72 -38 -152 -87 -233 -112 -384 -119 -172 -8
-270 14 -399 89 -61 36 -199 164 -199 185 0 5 109 46 243 91 133 45 436 147
672 227 237 80 504 171 595 201 91 30 172 59 179 64 28 17 -55 270 -140 430
-123 229 -346 426 -569 502 -120 41 -141 46 -223 57 -89 12 -302 12 -392 1z
m349 -469 c113 -40 217 -127 291 -244 43 -68 50 -109 20 -115 -11 -2 -33 -10
-50 -17 -16 -7 -82 -31 -145 -53 -63 -23 -180 -64 -259 -93 -79 -28 -156 -55
-170 -59 -14 -5 -78 -27 -141 -50 -63 -23 -133 -48 -155 -55 -22 -8 -78 -28
-125 -44 -47 -17 -86 -31 -87 -31 -1 0 -5 17 -9 37 -10 52 13 246 37 321 64
194 209 343 389 400 99 31 97 31 225 27 90 -2 135 -8 179 -24z"/>
<path d="M9985 2735 c-298 -55 -537 -214 -707 -470 -101 -154 -165 -323 -189
-503 -21 -158 -10 -443 22 -557 43 -154 83 -252 137 -335 162 -249 384 -397
682 -455 269 -52 537 -17 737 96 77 43 243 171 281 214 16 19 32 35 36 35 3 0
6 -70 6 -155 l0 -155 290 0 290 0 -2 1102 -3 1103 -262 3 -263 2 -4 -22 c-17
-93 -26 -152 -32 -205 -4 -35 -10 -63 -14 -63 -4 0 -25 21 -46 48 -146 179
-338 288 -569 321 -95 14 -304 12 -390 -4z m487 -470 c214 -37 401 -180 489
-372 l29 -63 0 -247 c0 -216 -2 -255 -18 -298 -75 -201 -224 -340 -427 -396
-115 -32 -280 -30 -387 4 -153 49 -277 139 -369 270 -97 139 -137 286 -126
470 13 200 65 317 201 452 50 50 112 100 136 112 112 53 105 51 235 77 47 9
158 5 237 -9z"/>
<path d="M19575 2740 c-156 -25 -269 -63 -410 -138 -135 -72 -213 -130 -308
-226 -245 -249 -357 -566 -328 -927 29 -350 172 -623 430 -817 296 -223 764
-301 1146 -191 67 19 92 28 195 71 53 22 200 96 217 110 12 9 5 21 -82 158
-12 19 -55 88 -95 152 -40 65 -74 118 -77 118 -3 0 -32 -16 -66 -36 -86 -51
-217 -102 -295 -115 -86 -15 -281 -6 -347 16 -76 26 -156 64 -200 98 -63 48
-155 151 -144 161 2 2 60 23 129 46 69 23 134 45 145 50 11 5 58 20 105 35 47
15 94 30 105 35 11 5 184 64 385 131 646 217 820 276 825 281 9 9 -33 161 -79
283 -20 55 -94 194 -137 257 -23 35 -81 102 -128 149 -137 137 -286 223 -476
274 -86 23 -124 27 -275 30 -96 2 -202 0 -235 -5z m346 -468 c101 -36 190
-104 259 -197 38 -51 80 -127 80 -143 0 -5 -53 -28 -117 -51 -65 -24 -134 -49
-153 -57 -19 -7 -107 -39 -195 -69 -88 -31 -227 -80 -310 -110 -82 -29 -201
-71 -264 -94 -62 -22 -118 -38 -122 -35 -16 10 -9 179 10 271 52 243 202 418
416 486 73 23 97 26 225 22 83 -2 131 -9 171 -23z"/>
<path d="M22355 2740 c-243 -37 -521 -178 -697 -354 -189 -189 -292 -392 -332
-652 -21 -134 -20 -222 4 -377 33 -211 94 -364 206 -513 180 -239 440 -385
773 -434 323 -47 572 -5 886 152 134 67 130 62 97 112 -16 22 -70 111 -122
196 -51 85 -99 161 -106 169 -10 11 -23 7 -75 -24 -88 -52 -218 -103 -297
-116 -87 -15 -282 -6 -347 16 -134 45 -246 119 -310 202 -19 25 -35 49 -35 53
0 3 37 19 83 34 186 64 1274 431 1427 482 91 30 171 59 179 63 10 7 8 27 -13
103 -125 459 -400 756 -801 863 -87 23 -123 27 -280 30 -99 2 -207 0 -240 -5z
m357 -468 c77 -28 157 -82 217 -148 54 -59 109 -148 113 -183 3 -23 19 -17
-317 -136 -82 -29 -222 -78 -310 -110 -88 -31 -203 -72 -255 -90 -52 -19 -133
-47 -179 -64 -46 -17 -88 -28 -93 -25 -11 7 -9 147 4 235 39 271 231 485 483
539 71 16 273 5 337 -18z"/>
<path d="M2268 2723 c6 -2 18 -2 25 0 6 3 1 5 -13 5 -14 0 -19 -2 -12 -5z"/>
<path d="M5688 2723 c6 -2 18 -2 25 0 6 3 1 5 -13 5 -14 0 -19 -2 -12 -5z"/>
<path d="M26937 2653 c-4 -3 -7 -501 -7 -1105 l0 -1098 290 0 290 0 -2 1103
-3 1102 -281 3 c-154 1 -283 -1 -287 -5z"/>
<path d="M24231 1060 c-159 -57 -245 -229 -197 -393 23 -78 69 -134 146 -176
60 -33 71 -36 150 -36 69 0 93 5 128 23 63 33 114 84 147 144 25 46 29 64 29
138 1 106 -23 158 -104 234 -92 84 -189 106 -299 66z"/>
</g>
</svg>
